{"title":"Supernatural S11 E21 720p HDTV [DeLUXAS]","uid":14607721,"size":402715484,"categoryP":"video","categoryS":"tv_shows","magnet":"?xt=urn:btih:c5a2e96851920dfdc4efbf145595566fb9917c33&amp;dn=Supernatural+S11+E21+720p+HDTV+%5BDeLUXAS%5D&amp;tr=udp%3A%2F%2Ftracker.leechers-paradise.org%3A6969&amp;tr=udp%3A%2F%2Fzer0day.ch%3A1337&amp;tr=udp%3A%2F%2Fopen.demonii.com%3A1337&amp;tr=udp%3A%2F%2Ftracker.coppersurfer.tk%3A6969&amp;tr=udp%3A%2F%2Fexodus.desync.com%3A6969","seeders":0,"leechers":1,"uploader":"periklo33","files":1,"time":1463105094,"description":"http://s25.postimg.org/3k97jv9rz/NTw_JCzeg.jpg\r\nGeneral\r\nComplete name : Supernatural S11 E21 720p HDTV [DeLUXAS]Supernatural-s11-e21-720p-HDTV-DeLUXAS.mp4\r\nFormat : MPEG-4\r\nFormat profile : Base Media\r\nCodec ID : isom (isom/iso2/avc1/mp41)\r\nFile size : 384 MiB\r\nDuration : 41mn 58s\r\nOverall bit rate : 1 279 Kbps\r\nWriting application : Lavf57.25.100\r\n\r\nVideo\r\nID : 1\r\nFormat : AVC\r\nFormat/Info : Advanced Video Codec\r\nFormat profile :   \r\nFormat settings, CABAC : Yes\r\nFormat settings, ReFrames : 4 frames\r\nCodec ID : avc1\r\nCodec ID/Info : Advanced Video Coding\r\nDuration : 41mn 58s\r\nBit rate : 1 146 Kbps\r\nWidth : 720 pixels\r\nHeight : 404 pixels\r\nDisplay aspect ratio : 16:9\r\nFrame rate mode : Constant\r\nFrame rate : 25.000 fps\r\nColor space : YUV\r\nChroma subsampling : 4:2:0\r\nBit depth : 8 bits\r\nScan type : Progressive\r\nBits/(Pixel*Frame) : 0.158\r\nStream size : 343 MiB (89%)\r\nWriting library : x264 core 146 r2555 0c21480\r\nEncoding settings : cabac=1 / ref=1 / deblock=1:0:0 / analyse=0x3:0x3 / me=dia / subme=1 / psy=1 / psy_rd=1.00:0.00 / mixed_ref=0 / me_range=16 / chroma_me=1 / trellis=0 / 8x8dct=1 / cqm=0 / deadzone=21,11 / fast_pskip=1 / chroma_qp_offset=0 / threads=12 / lookahead_threads=2 / sliced_threads=0 / nr=0 / decimate=1 / interlaced=0 / bluray_compat=0 / constrained_intra=0 / bframes=3 / b_pyramid=2 / b_adapt=1 / b_bias=0 / direct=1 / weightb=1 / open_gop=0 / weightp=1 / keyint=250 / keyint_min=25 / scenecut=40 / intra_refresh=0 / rc=abr / mbtree=0 / bitrate=1146 / ratetol=1.0 / qcomp=0.60 / qpmin=0 / qpmax=69 / qpstep=4 / ip_ratio=1.40 / pb_ratio=1.30 / aq=1:1.00\r\nLanguage : English\r\nMenus : 3\r\n\r\nAudio\r\nID : 2\r\nFormat : AAC\r\nFormat/Info : Advanced Audio Codec\r\nFormat profile : LC\r\nCodec ID : 40\r\nDuration : 41mn 58s\r\nBit rate mode : Constant\r\nBit rate : 128 Kbps\r\nChannel(s) : 2 channels\r\nChannel positions : Front: L R\r\nSampling rate : 44.1 KHz\r\nFrame rate : 43.066 fps (1024 spf)\r\nCompression mode : Lossy\r\nStream size : 38.4 MiB (10%)\r\nDefault : Yes\r\nAlternate group : 1\r\nMenus : 3\r\n\r\n\r\nScreenshot:\r\n \nhttp://s25.postimg.org/plzhtwu9r/Supernatural_s11_e21_720p_HDTV_De_LUXAS_mp4_20160.jpg \r\n \nhttp://s25.postimg.org/cj3van41r/Supernatural_s11_e21_720p_HDTV_De_LUXAS_mp4_20160.jpg \r\n \nhttp://s25.postimg.org/y6stl34fz/Supernatural_s11_e21_720p_HDTV_De_LUXAS_mp4_20160.jpg \r\n \nhttp://s25.postimg.org/qs3hspikf/Supernatural_s11_e21_720p_HDTV_De_LUXAS_mp4_20160.jpg \r\n \nhttp://s25.postimg.org/e1z9fmam7/Supernatural_s11_e21_720p_HDTV_De_LUXAS_mp4_20160.jpg\r\n \nhttp://s25.postimg.org/4ipkm5n3z/Supernatural_s11_e21_720p_HDTV_De_LUXAS_mp4_20160.jpg\r\n \nhttp://s25.postimg.org/vhtfhb9kv/Supernatural_s11_e21_720p_HDTV_De_LUXAS_mp4_20160.jpg","torrent":{"xt":"urn:btih:c5a2e96851920dfdc4efbf145595566fb9917c33","amp;dn":"Supernatural+S11+E21+720p+HDTV+%5BDeLUXAS%5D","amp;tr":["udp%3A%2F%2Ftracker.leechers-paradise.org%3A6969","udp%3A%2F%2Fzer0day.ch%3A1337","udp%3A%2F%2Fopen.demonii.com%3A1337","udp%3A%2F%2Ftracker.coppersurfer.tk%3A6969","udp%3A%2F%2Fexodus.desync.com%3A6969"],"infoHash":"c5a2e96851920dfdc4efbf145595566fb9917c33","infoHashBuffer":{"type":"Buffer","data":[197,162,233,104,81,146,13,253,196,239,191,20,85,149,86,111,185,145,124,51]},"announce":[],"urlList":[]}}